HIERARCHY
ROOT pelvis
{
  OFFSET 0 100 0
  CHANNELS 6 Xposition Yposition Zposition Zrotation Xrotation Yrotation
  JOINT pelvis_right_femur
  {
    OFFSET -10.78128 -3.44521 -0.5502486
    CHANNELS 3 Zrotation Xrotation Yrotation
    JOINT right_femur_tibia
    {
      OFFSET -0.8047443 -44.0398 -0.1307829
      CHANNELS 3 Zrotation Xrotation Yrotation
      JOINT right_tibia_foot
      {
        OFFSET 3.006224 -47.83518 -5
        CHANNELS 3 Zrotation Xrotation Yrotation
        End Site
        {
          OFFSET 0 -5 15
        }
      }
    }
  }
  JOINT pelvis_left_femur
  {
    OFFSET 10.78128 -3.44521 -0.5502486
    CHANNELS 3 Zrotation Xrotation Yrotation
    JOINT left_femur_tibia
    {
      OFFSET 0.8047443 -44.0398 -0.1307829
      CHANNELS 3 Zrotation Xrotation Yrotation
      JOINT left_tibia_foot
      {
        OFFSET -4.370144 -48.10324 -4.275266
        CHANNELS 3 Zrotation Xrotation Yrotation
        End Site
        {
          OFFSET 0 -5 15
        }
      }
    }
  }
  JOINT pelvis_spine1
  {
    OFFSET 0 6.468898 -3.129235
    CHANNELS 3 Zrotation Xrotation Yrotation
    JOINT spine1
    {
      OFFSET 0 23.15396 4.99043
      CHANNELS 3 Zrotation Xrotation Yrotation
      JOINT spine2
      {
        OFFSET 0 20.79997 -5.064912
        CHANNELS 3 Zrotation Xrotation Yrotation
        JOINT neck
        {
          OFFSET 0 14.38658 9.616178
          CHANNELS 3 Zrotation Xrotation Yrotation
          End Site
          {
            OFFSET 0 20 0
          }
        }
      }
      JOINT right_manubrium
      {
        OFFSET -5.722621 16.35077 3.967754
        CHANNELS 3 Zrotation Xrotation Yrotation
        JOINT right_clavicle
        {
          OFFSET -13.16364 1.694482 -4.693211
          CHANNELS 3 Zrotation Xrotation Yrotation
          JOINT right_humerus
          {
            OFFSET -28.5034 -0.3100689 -2.792744
            CHANNELS 3 Zrotation Xrotation Yrotation
            JOINT right_radius
            {
              OFFSET -25.15693 0.02248979 -1.271978
              CHANNELS 3 Zrotation Xrotation Yrotation
              End Site
              {
                OFFSET -15 0 0
              }
            }
          }
        }
      }
      JOINT left_manubrium
      {
        OFFSET 5.722621 16.35077 3.967754
        CHANNELS 3 Zrotation Xrotation Yrotation
        JOINT left_clavicle
        {
          OFFSET 13.16364 1.694482 -4.693211
          CHANNELS 3 Zrotation Xrotation Yrotation
          JOINT left_humerus
          {
            OFFSET 29.39168 -1.063119 -2.237045
            CHANNELS 3 Zrotation Xrotation Yrotation
            JOINT left_radius
            {
              OFFSET 24.59957 -0.9528479 0.9047498
              CHANNELS 3 Zrotation Xrotation Yrotation
              End Site
              {
                OFFSET 15 -0 -0
              }
            }
          }
        }
      }
    }
  }
}
MOTION
Frames: 23
Frame Time: 0.0416666666667
0 103.5113 0 0.7377823 3.246423 -0.2267538 3.987949 -29.72441 5.845707 -0 5.694364 -0 -7.106853 -19.06776 -6.077457 -4.845587 23.4866 -22.57266 0 -1.80659 0 7.186963 -23.29593 21.86295 -4.309516 -4.568553 2.769702 4.950643 6.595228 -10.13518 1.554828 21.05455 5.776089 1.891561 -26.57424 9.321027 4.020378 -18.14541 10.08088 89.51885 34.78943 -25.84354 -0 0 9.775407 -4.59171 8.897515 3.404947 7.15452 -22.5242 -0.154868 -87.59355 27.10771 13.52796 0 0 -25.59107 8.036989 19.53864 2.967155
0.01158429 103.0091 2.347382 0.5899935 0.4369344 -0.2323517 3.633482 -22.54948 6.766507 -0 24.53253 -0 -6.631432 -14.45879 -3.95748 -6.026657 15.71053 -21.53096 -0 1.777482 -0 8.413112 -19.64239 24.49909 -3.669156 -3.921348 3.694966 3.376244 8.820061 -8.634947 1.417731 21.81231 6.392631 2.559009 -25.42555 9.340817 4.671306 -19.48247 10.9836 87.76856 33.60544 -21.62232 -0 0 13.15945 -7.880005 8.6078 4.961188 6.402277 -21.26611 -1.531648 -91.18619 26.056 18.47651 0 0 -19.54613 8.632697 18.05243 3.534298
0.4046868 102.9415 4.501492 0.09136893 -0.3912603 -0.1776332 4.476743 -21.14601 7.964144 -0 34.38466 -0 -5.652746 -11.76531 -2.475747 -6.460629 10.41116 -20.68023 -0 4.720939 -0 9.567806 -17.62696 25.76783 -2.959895 -3.19511 4.558465 2.57359 10.30681 -7.799329 1.414261 21.53217 6.740274 2.908113 -25.27564 9.527215 5.299273 -20.50553 11.70416 86.43322 33.24912 -19.08712 -0 0 15.97445 -9.348484 8.72545 5.645974 6.14598 -20.49935 -2.116023 -92.96791 24.07778 21.48724 0 0 -16.77421 10.2525 16.1104 2.674662
1.23757 103.2581 6.537481 -0.2717494 -1.968628 -0.01728713 4.6688 -17.33809 8.428206 -0 45.63775 -0 -5.401356 -7.537228 -0.5094786 -6.997273 3.649595 -19.19375 -0 8.284741 -0 10.86497 -14.68738 27.13351 -2.271571 -2.360086 5.490307 1.406807 12.10588 -6.498943 1.47114 21.68171 6.996784 3.225672 -24.81257 9.675499 5.537881 -21.5943 12.41176 85.33333 31.90857 -15.71083 -0 0 18.48362 -11.77764 8.618556 6.827281 5.922493 -19.78804 -2.893154 -94.74545 21.06516 24.32708 0 0 -12.53769 13.14039 14.10312 0.4377459
2.622146 104.0633 8.486875 -0.4892226 -4.705564 0.28512 4.222667 -10.51891 8.16538 -0 60.14041 -0 -5.977864 -1.192148 2.153852 -7.50161 -5.211526 -16.99119 -0 12.9505 -0 11.98298 -10.65719 28.62365 -1.50961 -1.31789 6.512038 -0.3637275 14.4307 -4.576308 1.502277 22.36242 7.316431 3.642738 -23.79726 9.705978 5.443561 -22.86602 13.24532 84.67864 29.31302 -11.43992 -0 0 20.94596 -15.7523 8.20077 8.731683 5.627971 -19.09025 -4.171966 -96.80057 17.23429 27.37222 0 0 -6.646586 16.60321 11.84234 -2.298635
4.371251 105.2041 10.56838 -0.5225426 -6.931324 0.725917 3.788642 -5.572444 7.046568 -0 68.45679 -0 -7.067254 4.477795 4.31338 -7.506822 -11.25527 -14.66882 -0 16.84303 -0 12.11065 -8.075547 28.97601 -0.9765796 -0.4134844 7.035642 -1.727215 16.03782 -3.104479 1.472545 23.05448 7.603677 3.989706 -22.84752 9.597275 4.946541 -23.49425 13.77648 85.0267 26.7686 -8.823063 -0 0 21.69033 -19.34154 7.742661 10.40236 5.52711 -19.00626 -5.35236 -97.67474 14.42653 28.5527 0 0 -3.120126 18.95195 10.18315 -4.289026
6.061742 106.3106 13.22606 -0.4389864 -7.127332 1.259341 3.771206 -6.917344 4.958947 -0 63.19651 -0 -7.927925 7.253094 4.775551 -7.056973 -10.40118 -12.69131 -0 18.53766 -0 10.70183 -9.031004 27.19081 -0.911969 0.1485063 6.580759 -1.698936 15.91123 -3.085164 1.374885 23.27136 7.809332 4.151643 -22.53001 9.396334 4.104975 -22.68117 13.64785 86.1633 25.5957 -9.607668 -0 0 19.41868 -20.82369 7.647179 11.06428 5.81382 -19.89816 -5.85941 -96.31408 14.20096 26.31964 0 0 -5.158067 18.92774 9.738577 -4.608877
7.140886 106.8513 17.06282 -0.3711321 -4.281017 1.778374 4.013755 -17.30833 2.06936 -0 40.10748 -0 -7.904614 5.576602 2.600647 -6.457603 -0.1768788 -11.68145 -0 17.16516 -0 7.157608 -14.51211 22.43645 -1.441666 0.188713 4.913619 0.2621722 13.41214 -5.088853 1.22617 22.62961 7.855675 4.015054 -23.25294 9.149199 3.080781 -19.99299 12.70449 88.02008 26.57395 -14.94257 -0 0 13.53758 -18.98403 8.255804 10.17426 6.624819 -21.92198 -5.235468 -91.88713 17.05533 19.53143 0 0 -14.63495 15.84572 10.75088 -2.732718
7.150596 106.1886 22.50685 -0.4286988 1.272343 2.170963 3.829236 -35.42824 -1.233957 -0 2.406028 -0 -7.226206 -0.379133 -1.982796 -5.719768 17.99603 -11.99321 -0 13.41237 -0 0.7862522 -23.15572 14.35732 -2.443633 -0.2832987 2.285838 3.615108 8.757145 -8.623914 1.049827 21.11725 7.702686 3.561393 -24.9204 8.85811 2.161853 -15.76219 11.16125 91.14628 29.31898 -24.55726 -0 0 4.91723 -14.0079 9.456365 7.755117 7.922613 -24.75271 -3.46911 -84.37185 21.62262 8.257899 0 0 -30.34656 9.997242 12.60248 1.31316
5.983171 103.8487 29.38943 -0.6031171 7.470141 2.38848 2.610615 -54.71177 -4.672303 0 -37.32619 0 -6.713253 -8.157048 -7.425526 -4.375538 37.76721 -13.51647 -0 9.950245 -0 -7.886806 -30.95506 4.142652 -3.449625 -1.079216 -0.4274705 6.920327 3.520429 -12.29819 0.8729896 19.22783 7.368437 2.912528 -26.804 8.484015 1.597546 -11.33714 9.571779 95.62514 32.13661 -35.8179 0 0 -3.756608 -7.921351 10.74486 4.664696 9.304364 -27.51253 -1.236131 -75.73293 25.30353 -4.50457 0 0 -47.18472 3.176243 14.04935 6.408185
4.084994 100.1908 36.94786 -0.7913554 10.85086 2.450213 1.855749 -64.54222 -6.200582 0 -59.18009 0 -6.577049 -13.16633 -11.20283 -2.76454 48.93511 -14.81463 -0 11.05554 -0 -14.36042 -33.21236 -3.028793 -3.690796 -1.864152 -1.877045 8.559703 0.598669 -14.4429 0.7360825 17.93738 6.961852 2.367741 -27.67687 8.014189 1.419793 -8.804417 8.690922 99.05485 33.25242 -43.01572 0 0 -8.531113 -4.382537 11.72461 2.67781 9.868337 -28.95921 0.05972345 -70.46455 26.57566 -11.96105 0 0 -56.89235 -1.314286 14.11292 10.135
2.395928 96.81094 44.4624 -0.9295675 8.432918 2.391118 4.708603 -56.01029 -2.339333 0 -46.70553 0 -6.337972 -11.1563 -10.83221 -3.006172 42.89005 -12.73882 -0 20.37059 -0 -13.12519 -27.55632 -1.029193 -2.538537 -2.210682 -0.9719209 7.459825 2.513729 -13.75659 0.6943274 18.21452 6.653866 2.295453 -26.53795 7.519581 1.523951 -9.826034 9.147777 98.2462 32.14569 -40.56384 0 0 -6.365506 -6.668163 12.22233 3.542688 8.762358 -28.09516 -0.8740153 -72.57829 25.56302 -7.948234 0 0 -52.38823 -0.5625523 12.67854 10.26254
1.667007 95.50544 51.62658 -1.106317 1.554487 2.170158 6.484098 -33.32514 1.731278 0 -8.617644 0 -6.459299 -3.413818 -7.003976 -3.396305 23.17655 -9.113513 -0 36.26054 -0 -7.593489 -15.82294 6.954558 -0.4558129 -1.873932 1.7053 4.210457 8.002591 -10.58984 0.766876 19.81612 6.530548 2.742557 -24.0463 7.1019 1.937138 -13.55024 10.70309 94.60308 29.2655 -30.78437 -0 0 0.9079958 -13.43624 11.96548 6.767215 6.50024 -25.36805 -3.357593 -80.28729 22.34907 4.441932 0 0 -36.69062 4.093647 10.30244 7.753776
1.36085 96.13074 58.61111 -1.47744 -1.780082 1.663418 7.525064 -21.14536 3.993233 -0 8.307575 -0 -6.573512 -0.2958047 -5.3174 -2.743103 12.27427 -7.835522 -0 48.48072 -0 -5.947767 -8.778379 10.93107 0.5464463 -1.490282 3.227995 2.87459 10.71646 -9.019773 0.8956145 20.33187 6.388766 3.066248 -23.26109 6.840459 2.575138 -15.59497 11.64821 92.64471 28.4072 -26.064 -0 0 4.703572 -16.33381 11.99514 8.433256 5.057848 -23.74458 -4.252774 -84.34537 20.86545 11.17677 0 0 -28.53579 5.386286 9.060325 7.65383
0.05199197 96.46655 66.40386 -1.641745 3.593589 0.848817 9.845612 -35.68863 4.72003 0 -26.87984 0 -5.37387 -9.278436 -9.796164 -1.884793 25.22492 -10.55244 -0 48.51802 -0 -10.78553 -14.7575 5.647181 -0.8499252 -1.794477 1.824932 6.379839 6.699863 -12.18832 1.039875 18.10682 5.915063 2.620671 -25.69374 6.689966 3.056152 -13.1709 10.67219 94.21725 32.32182 -34.05449 0 0 -0.1413879 -10.10737 13.72118 5.943821 5.633393 -25.43073 -1.84241 -78.87607 25.20003 3.824787 0 0 -40.6534 -1.341311 10.17944 12.96362
-1.747335 95.4796 74.15185 -0.8703482 5.164613 -0.3853473 10.00051 -39.22149 4.601732 0 -44.84491 0 -4.508879 -15.47298 -11.87418 -1.648258 27.66567 -11.42196 -0 48.08899 -0 -13.17199 -18.02828 3.341725 -2.004823 -1.560522 1.891847 7.714293 5.012934 -13.12682 1.308816 17.38372 5.31389 2.209698 -25.78617 6.428851 3.181398 -12.61478 10.32119 93.83118 33.27776 -36.17471 0 0 -0.6876688 -7.867818 14.79611 5.20479 5.907062 -25.99742 -0.7986976 -76.85776 27.10641 1.019705 0 0 -44.9805 -5.256528 10.70683 15.98921
-2.077963 95.48831 80.11329 0.010231 -4.973974 -1.397442 6.482733 -6.131504 4.744553 -0 3.15082 -0 -4.337458 -7.894111 -5.439748 -2.151037 -3.86449 -6.71772 -0 56.45013 -0 -6.134291 -7.148746 14.01188 -0.8469345 -0.040573 6.158065 2.419798 11.70723 -7.28881 1.718947 20.9995 4.980549 2.65328 -20.6139 6.114602 2.98357 -18.08353 12.33622 87.60449 26.9057 -19.70162 -0 0 11.32062 -18.03171 13.21463 10.30174 4.085624 -22.02336 -3.970143 -88.12413 21.69611 16.74893 0 0 -22.25188 1.477426 9.467762 11.22453
-1.297702 96.97619 84.69497 0.3706746 -11.86254 -1.949345 3.892067 19.43871 6.306244 -0 38.82421 -0 -5.008523 -3.481505 -0.2037106 -0.1363424 -29.16233 -2.884677 -0 58.61944 -0 -2.322751 1.6551 21.52317 0.03109627 1.196673 9.258625 -2.25126 15.69222 -2.092592 1.907961 23.87886 4.842107 2.947199 -16.84948 5.943008 2.649953 -22.15582 13.62552 84.78926 22.30633 -7.550774 -0 0 20.81299 -24.99024 10.9899 13.62959 3.161194 -18.42559 -5.736263 -95.82218 16.72238 27.3534 0 0 -5.26366 6.65811 7.933593 7.659917
-0.9327716 97.96403 89.6653 0.389638 -8.609426 -2.669526 4.427379 15.45342 5.292024 -0 22.16521 -0 -4.304618 -10.07407 -1.120356 0.9896547 -27.38251 -3.031935 -0 47.32338 -0 -3.585661 -2.010681 20.09261 -0.5154296 1.110407 8.649525 -1.025515 13.01762 -2.933031 1.72177 23.25373 4.745818 2.503425 -17.58255 5.935442 1.893739 -21.53961 12.71819 83.3268 24.88409 -7.990692 -0 0 20.52511 -22.40312 11.10726 12.79952 3.946902 -18.29571 -4.116816 -94.11498 19.70802 25.222 0 0 -10.39008 4.04439 8.19486 9.588461
-1.210639 97.43899 95.65581 0.1193125 -3.72301 -3.544124 5.615371 5.762604 3.623905 0 -3.202224 0 -3.376252 -17.48261 -3.207785 1.859464 -18.99369 -4.07565 -0 31.76109 -0 -5.789232 -7.789311 16.68683 -1.043725 0.3862158 7.158569 1.292931 9.642041 -5.157043 1.415535 21.45954 4.601284 1.846857 -19.40713 5.855098 1.057745 -20.83067 11.57741 82.59899 27.84657 -11.06914 -0 0 18.87809 -19.09739 12.20544 12.02919 4.820904 -19.17939 -2.265475 -90.46909 23.30523 21.27876 0 0 -19.37922 -0.3118073 8.76865 12.85308
-1.161608 96.2734 101.7196 -0.5217038 -4.713552 -4.352446 5.492095 12.2637 3.188894 -0 3.662431 -0 -2.881339 -17.107 -2.012562 3.187377 -23.02953 -2.873702 -0 22.23026 -0 -4.454976 -6.267953 18.18711 -0.444778 -0.2049019 7.452754 0.5566007 10.53478 -4.563142 1.339013 21.11373 4.346739 1.498626 -19.09305 5.718942 0.4914362 -23.48184 11.65704 81.72713 25.44204 -7.57967 -0 0 23.01033 -21.93189 12.58171 14.37083 4.342587 -18.40304 -2.699342 -92.45334 21.51426 25.69459 0 0 -15.10069 -0.2915342 8.806943 13.07016
-0.5338919 95.66876 107.7355 -1.015538 -7.523681 -5.084717 4.493004 23.26159 3.343655 -0 21.50565 -0 -2.900268 -14.28864 0.05027669 3.685254 -30.17709 -1.769012 -0 18.58072 -0 -2.348302 -2.650128 21.01728 0.1388386 -0.4700284 8.270105 -1.136308 12.13635 -2.834407 1.556596 21.87662 4.131203 1.401718 -17.86926 5.822984 0.206823 -25.8775 11.82155 81.30812 21.95621 -2.554135 -0 0 27.46046 -25.59066 11.88193 16.81628 3.565085 -16.73124 -3.529442 -95.95358 18.66681 31.12634 0 0 -6.238079 1.417115 8.934934 12.02902
0.0173883 95.45764 114.1675 -0.788093 -7.103741 -5.686137 3.577426 23.83136 2.816836 -0 22.20427 -0 -2.824196 -14.29819 0.1725146 2.198211 -28.80505 -3.233689 -0 16.63873 -0 -2.801393 -3.787267 20.98181 -0.395427 -0.44765 7.936054 -1.050644 10.77615 -2.550044 1.841785 22.49398 4.258535 1.497782 -17.68744 6.207882 -0.07931981 -24.69084 11.03911 80.92374 22.04066 -1.952106 -0 0 26.39712 -25.09609 10.75077 16.65797 3.728799 -15.80529 -2.916387 -96.13073 20.11783 30.09553 0 0 -4.949031 0.7741744 9.325007 12.65958
